# xmcd CD database file generated by MAGIX_Freedb v0.9beta0
# 
# Track frame offsets:
#      150
#      12312
#      34020
#      43795
#      55655
#      68840
#      83690
#      98710
#      111047
#      121185
#      134537
#      151940
#      164050
#      178850
# 
# Disc length: 2565 seconds
# 
# Revision: 2 
# Processed by: cddbd v1.5.2PL0 Copyright (c) Steve Scherf et al.
# Submitted via: MAGIX_Freedb v0.9beta0
# 
DISCID=b40a030e
DTITLE=Tom Astor - Diesel Country
DYEAR=1900
DGENRE=
TTITLE0=Tom Astor - Trucker sind Partner
TTITLE1=Kameraden der Straße
TTITLE2=Sicht weg - Gas weg
TTITLE3=14 tage auf dem Brenner
TTITLE4=Partner fahr rechts
TTITLE5=Sonntagmorgen
TTITLE6=Halt abstand Junge
TTITLE7=Junge zieh die bremse an
TTITLE8=Übermüdung tötet
TTITLE9=Der kleine Trucker
TTITLE10=Mein freund Charly
TTITLE11=Radwechsel
TTITLE12=Das schöne Mädchen von der Autobahn
TTITLE13=Irgendwo am Horizont
EXTD=
EXTT0=
EXTT1=
EXTT2=
EXTT3=
EXTT4=
EXTT5=
EXTT6=
EXTT7=
EXTT8=
EXTT9=
EXTT10=
EXTT11=
EXTT12=
EXTT13=
PLAYORDER=
